<?xml version="1.0" encoding="UTF-8"?>
<svg id="_레이어_1" data-name="레이어 1" xmlns="http://www.w3.org/2000/svg" viewBox="0 0 1080 1920">
  <defs>
    <style>
      .cls-1 {
        fill: #4744bc;
        stroke-width: 0px;
      }
    </style>
  </defs>
  <path class="cls-1" d="M478.17,1047.01c-6.11-.06-10.64-1.17-13.61-3.34-2.96-2.16-4.44-5.56-4.44-10.18v-13.25c0-2.96-.93-5.07-2.8-6.32-1.87-1.24-4.58-1.87-8.14-1.87v-7.65c3.56-.06,6.27-.69,8.14-1.91,1.87-1.22,2.8-3.28,2.8-6.18v-13.34c0-4.63,1.52-8.03,4.58-10.23s7.55-3.29,13.48-3.29v7.38c-2.85.06-5.1.67-6.76,1.82-1.66,1.16-2.49,3.13-2.49,5.92v12.81c0,5.93-3.26,9.43-9.79,10.5v.53c6.52,1.13,9.79,4.63,9.79,10.5v13.08c0,2.79.8,4.74,2.4,5.87,1.6,1.13,3.88,1.72,6.85,1.78v7.38Z"/>
  <path class="cls-1" d="M596.42,1047.01v-7.38c2.84-.06,5.1-.67,6.76-1.82,1.66-1.15,2.49-3.13,2.49-5.91v-12.89c0-5.93,3.26-9.43,9.79-10.5v-.54c-6.53-1.07-9.79-4.56-9.79-10.5v-12.99c0-2.79-.8-4.74-2.4-5.87s-3.88-1.72-6.85-1.78v-7.38c6.16.06,10.72,1.17,13.65,3.33,2.94,2.17,4.4,5.56,4.4,10.18v13.25c0,2.91.93,5,2.8,6.27s4.58,1.91,8.14,1.91v7.65c-3.56,0-6.27.61-8.14,1.82-1.87,1.22-2.8,3.31-2.8,6.27v13.34c0,4.63-1.53,8.03-4.58,10.23-3.05,2.19-7.55,3.29-13.47,3.29Z"/>
  <path class="cls-1" d="M503.53,973.32c3.32,0,5.77.62,7.36,1.85,1.59,1.24,2.38,3.11,2.38,5.63,0,1.33-.24,2.45-.73,3.36-.48.91-1.12,1.65-1.91,2.23-.79.58-1.6,1.03-2.45,1.34l7.26,11.51h-4.5l-6.25-10.5h-4.5v10.5h-3.92v-25.94h7.26ZM503.27,976.66h-3.09v8.83h3.27c2.01,0,3.47-.38,4.4-1.14.92-.76,1.38-1.89,1.38-3.4s-.48-2.65-1.45-3.31c-.97-.65-2.47-.98-4.5-.98Z"/>
  <path class="cls-1" d="M533.86,999.26h-14.6v-25.94h14.6v3.34h-10.68v7.41h10.03v3.31h-10.03v8.5h10.68v3.38Z"/>
  <path class="cls-1" d="M539.49,973.32h7.59c3.29,0,5.79.48,7.5,1.45,1.71.97,2.56,2.64,2.56,5.01,0,1.5-.41,2.76-1.22,3.78-.81,1.02-1.97,1.66-3.47,1.93v.18c1.02.19,1.94.51,2.78.96.84.45,1.49,1.09,1.98,1.93.48.84.73,1.93.73,3.29,0,2.37-.82,4.2-2.47,5.48-1.65,1.28-3.87,1.93-6.68,1.93h-9.3v-25.94ZM543.41,984.15h4.32c2.03,0,3.43-.33,4.2-.98.76-.65,1.14-1.62,1.14-2.91s-.47-2.21-1.4-2.78c-.93-.57-2.39-.85-4.38-.85h-3.89v7.52ZM543.41,987.34v8.65h4.76c2.08,0,3.54-.41,4.38-1.24.84-.82,1.25-1.91,1.25-3.27,0-1.24-.43-2.23-1.29-3-.86-.76-2.39-1.14-4.59-1.14h-4.5Z"/>
  <path class="cls-1" d="M577.92,999.26h-14.6v-25.94h14.6v3.34h-10.68v7.41h10.03v3.31h-10.03v8.5h10.68v3.38Z"/>
  <path class="cls-1" d="M501.31,1038.25h-3.83v-11.56h-12.09v11.56h-3.83v-25.31h3.83v10.49h12.09v-10.49h3.83v25.31Z"/>
  <path class="cls-1" d="M523.86,1038.25l-2.69-7.3h-9.78l-2.69,7.3h-3.97l9.61-25.41h3.97l9.57,25.41h-4.01ZM520.1,1027.62l-2.55-7.12c-.09-.26-.23-.65-.39-1.17-.17-.52-.33-1.06-.5-1.63-.17-.57-.3-1.03-.39-1.38-.19.73-.4,1.51-.64,2.34-.24.83-.43,1.44-.57,1.84l-2.55,7.12h7.59Z"/>
  <path class="cls-1" d="M536.12,1024.78l6.2-11.84h4.11l-8.44,15.49v9.82h-3.79v-9.68l-8.44-15.63h4.15l6.2,11.84Z"/>
  <path class="cls-1" d="M563.45,1038.25l-2.69-7.3h-9.78l-2.69,7.3h-3.97l9.61-25.41h3.97l9.57,25.41h-4.01ZM559.69,1027.62l-2.55-7.12c-.09-.26-.23-.65-.39-1.17-.17-.52-.33-1.06-.5-1.63-.17-.57-.3-1.03-.39-1.38-.19.73-.4,1.51-.64,2.34-.24.83-.43,1.44-.57,1.84l-2.55,7.12h7.59Z"/>
  <path class="cls-1" d="M591.63,1038.25h-4.64l-12.8-20.45h-.14c.05.95.1,2.03.16,3.24.06,1.22.1,2.46.12,3.74v13.47h-3.47v-25.31h4.61l12.76,20.35h.11c-.02-.5-.05-1.12-.09-1.88-.04-.76-.07-1.57-.09-2.43-.02-.86-.05-1.67-.07-2.43v-13.61h3.54v25.31Z"/>
</svg>