<?xml version="1.0" encoding="UTF-8"?>
<svg id="_레이어_1" data-name="레이어 1" xmlns="http://www.w3.org/2000/svg" viewBox="0 0 231.43 140.14">
  <defs>
    <style>
      .cls-1 {
        fill: #4744bc;
        stroke-width: 0px;
      }
    </style>
  </defs>
  <path class="cls-1" d="M40.4,119.44c-7.75-.08-13.5-1.49-17.26-4.23-3.76-2.74-5.64-7.05-5.64-12.91v-16.8c0-3.76-1.18-6.43-3.55-8.01-2.37-1.58-5.81-2.37-10.32-2.37v-9.7c4.51-.07,7.95-.88,10.32-2.42,2.37-1.54,3.55-4.15,3.55-7.84v-16.92c0-5.87,1.93-10.19,5.81-12.97s9.57-4.17,17.09-4.17v9.36c-3.61.07-6.47.84-8.57,2.31-2.11,1.47-3.16,3.97-3.16,7.5v16.24c0,7.52-4.14,11.95-12.41,13.31v.67c8.27,1.43,12.41,5.87,12.41,13.31v16.58c0,3.53,1.01,6.01,3.04,7.44,2.03,1.43,4.92,2.18,8.69,2.25v9.36Z"/>
  <path class="cls-1" d="M190.35,119.44v-9.36c3.61-.07,6.46-.84,8.57-2.31,2.11-1.46,3.16-3.97,3.16-7.5v-16.35c0-7.52,4.13-11.95,12.41-13.31v-.68c-8.27-1.35-12.41-5.79-12.41-13.31v-16.47c0-3.53-1.01-6.02-3.04-7.44s-4.92-2.18-8.68-2.25v-9.36c7.82.07,13.59,1.48,17.31,4.23,3.72,2.75,5.59,7.05,5.59,12.91v16.81c0,3.69,1.18,6.34,3.55,7.95s5.81,2.42,10.32,2.42v9.7c-4.51,0-7.95.77-10.32,2.31-2.37,1.54-3.55,4.19-3.55,7.95v16.92c0,5.87-1.94,10.19-5.81,12.97-3.87,2.78-9.57,4.17-17.09,4.17Z"/>
  <path class="cls-1" d="M72.56,26c4.21,0,7.32.78,9.33,2.35,2.01,1.57,3.02,3.95,3.02,7.14,0,1.69-.31,3.11-.92,4.26-.61,1.15-1.42,2.1-2.42,2.83-1,.74-2.03,1.31-3.11,1.7l9.21,14.6h-5.71l-7.92-13.31h-5.71v13.31h-4.97V26h9.21ZM72.23,30.24h-3.91v11.19h4.15c2.55,0,4.41-.48,5.57-1.45,1.17-.97,1.75-2.4,1.75-4.31s-.61-3.36-1.84-4.19c-1.23-.83-3.13-1.24-5.71-1.24Z"/>
  <path class="cls-1" d="M111.02,58.89h-18.52V26h18.52v4.24h-13.54v9.4h12.71v4.19h-12.71v10.78h13.54v4.28Z"/>
  <path class="cls-1" d="M118.16,26h9.63c4.18,0,7.35.61,9.51,1.84,2.17,1.23,3.25,3.35,3.25,6.36,0,1.9-.51,3.5-1.54,4.79-1.03,1.29-2.5,2.1-4.4,2.44v.23c1.29.25,2.46.65,3.52,1.22,1.06.57,1.9,1.38,2.51,2.44.61,1.06.92,2.45.92,4.17,0,3.01-1.04,5.33-3.13,6.96-2.09,1.63-4.91,2.44-8.48,2.44h-11.79V26ZM123.13,39.73h5.48c2.58,0,4.35-.41,5.32-1.24.97-.83,1.45-2.06,1.45-3.69s-.59-2.8-1.77-3.52c-1.18-.72-3.03-1.08-5.55-1.08h-4.93v9.53ZM123.13,43.78v10.96h6.03c2.64,0,4.49-.52,5.55-1.57,1.06-1.04,1.59-2.43,1.59-4.15,0-1.57-.55-2.83-1.64-3.8-1.09-.97-3.03-1.45-5.83-1.45h-5.71Z"/>
  <path class="cls-1" d="M166.89,58.89h-18.52V26h18.52v4.24h-13.54v9.4h12.71v4.19h-12.71v10.78h13.54v4.28Z"/>
  <path class="cls-1" d="M69.75,108.33h-4.85v-14.65h-15.33v14.65h-4.85v-32.09h4.85v13.3h15.33v-13.3h4.85v32.09Z"/>
  <path class="cls-1" d="M98.34,108.33l-3.42-9.26h-12.41l-3.42,9.26h-5.03l12.18-32.23h5.03l12.14,32.23h-5.08ZM93.57,94.85l-3.24-9.03c-.12-.33-.29-.82-.49-1.48-.21-.66-.42-1.35-.63-2.07-.21-.72-.38-1.3-.49-1.75-.24.93-.51,1.92-.81,2.97-.3,1.05-.54,1.83-.72,2.34l-3.24,9.03h9.62Z"/>
  <path class="cls-1" d="M113.89,91.25l7.87-15.01h5.21l-10.7,19.64v12.45h-4.81v-12.27l-10.7-19.82h5.26l7.87,15.01Z"/>
  <path class="cls-1" d="M148.54,108.33l-3.42-9.26h-12.41l-3.42,9.26h-5.03l12.18-32.23h5.03l12.14,32.23h-5.08ZM143.78,94.85l-3.24-9.03c-.12-.33-.29-.82-.49-1.48-.21-.66-.42-1.35-.63-2.07-.21-.72-.38-1.3-.49-1.75-.24.93-.51,1.92-.81,2.97-.3,1.05-.54,1.83-.72,2.34l-3.24,9.03h9.62Z"/>
  <path class="cls-1" d="M184.27,108.33h-5.89l-16.23-25.93h-.18c.06,1.2.13,2.57.2,4.11.07,1.54.13,3.12.16,4.74v17.08h-4.41v-32.09h5.84l16.18,25.8h.13c-.03-.63-.07-1.42-.11-2.38-.04-.96-.08-1.98-.11-3.08-.03-1.09-.06-2.12-.09-3.08v-17.26h4.49v32.09Z"/>
</svg>