<?xml version="1.0" encoding="UTF-8"?>
<svg id="_레이어_1" data-name=" 레이어 1" xmlns="http://www.w3.org/2000/svg" version="1.1" viewBox="0 0 78.3 52.2">
  <defs>
    <style>
      .cls-1 {
        fill: red;
        stroke-width: 0px;
      }
    </style>
  </defs>
  <path class="cls-1" d="M78.1,52H0V0h78.1v52.2h0v-.2ZM1.3,50.8h75.6V1.2H1.3v49.7h0Z"/>
  <g>
    <path class="cls-1" d="M13.9,15h6.7c4.8,0,8.4,1.7,8.4,6.5s-3.5,7-8.2,7h-3.3v8.4h-3.5s0-21.9,0-21.9ZM20.2,25.9c3.5,0,5.2-1.3,5.2-4.2s-1.8-3.8-5.4-3.8h-2.8v8h3,0Z"/>
    <path class="cls-1" d="M33.1,15h5.7c6.7,0,10.5,3.7,10.5,10.9s-3.8,11-10.4,11h-5.9V15ZM38.6,34.1c4.7,0,7.2-2.8,7.2-8.2s-2.5-8-7.2-8h-2v16.2s2,0,2,0Z"/>
    <path class="cls-1" d="M53.8,15h13v2.8h-9.5v6.7h8v2.8h-8v9.4h-3.5V14.9v.2Z"/>
  </g>
</svg>