<?xml version="1.0" encoding="UTF-8"?>
<svg id="_레이어_1" data-name=" 레이어 1" xmlns="http://www.w3.org/2000/svg" version="1.1" viewBox="0 0 58 110.8">
  <defs>
    <style>
      .cls-1 {
        fill: #919191;
        stroke: #919191;
        stroke-linecap: round;
        stroke-linejoin: round;
        stroke-width: 4px;
      }
    </style>
  </defs>
  <path class="cls-1" d="M49.7,24.2c.3-.3.3-.8,0-1.1L29,2.5h0S8.4,23.1,8.4,23.1c-.3.3-.3.8,0,1.1h0c.3.3.8.3,1.1,0L29,4.7l19.5,19.5c.3.3.8.3,1.1,0h0Z"/>
  <path class="cls-1" d="M8.5,86.5c-.3.3-.3.8,0,1.1l20.6,20.6h0s20.6-20.7,20.6-20.7c.3-.3.3-.8,0-1.1h0c-.3-.3-.8-.3-1.1,0l-19.5,19.5-19.5-19.5c-.3-.3-.8-.3-1.1,0h0Z"/>
</svg>