<?xml version="1.0" encoding="UTF-8"?>
<svg id="_레이어_1" data-name="레이어 1" xmlns="http://www.w3.org/2000/svg" viewBox="0 0 362.94 231.01">
  <defs>
    <style>
      .cls-1 {
        fill: #f2846e;
      }

      .cls-1, .cls-2, .cls-3, .cls-4, .cls-5, .cls-6, .cls-7, .cls-8, .cls-9 {
        stroke-width: 0px;
      }

      .cls-2, .cls-10, .cls-11 {
        fill: none;
      }

      .cls-3 {
        fill: #6bafff;
      }

      .cls-4 {
        fill: #262626;
      }

      .cls-10 {
        stroke: #bdd4ef;
        stroke-width: 6.26px;
      }

      .cls-10, .cls-11 {
        stroke-linecap: round;
        stroke-linejoin: round;
      }

      .cls-5 {
        fill: #93c2ff;
      }

      .cls-11 {
        stroke: #fff;
        stroke-width: 1.65px;
      }

      .cls-6 {
        fill: #fcd6ca;
      }

      .cls-7 {
        fill: #c0deff;
      }

      .cls-8 {
        fill: #fff;
      }

      .cls-9 {
        fill: #f1b4a8;
      }
    </style>
  </defs>
  <path class="cls-10" d="M197.47,85.83s8.59-43.35-40.49-39.67c0,0-28.22,4.09-37.22,27.4,1.51-3.92-10.18-15.86-12.56-17.93-4.54-3.96-10.07-6.69-16.18-6.84-16.49-.41-28.25,22.85-24.02,37.05,0,0-20.04-12.27-22.09,5.73"/>
  <path class="cls-7" d="M102.3,39.54h16.67c1.37,0,2.63.73,3.32,1.92l8.33,14.43c.68,1.19.68,2.65,0,3.83l-8.33,14.43c-.68,1.19-1.95,1.92-3.32,1.92h-16.67c-1.37,0-2.63-.73-3.32-1.92l-8.33-14.43c-.68-1.19-.68-2.65,0-3.83l8.33-14.43c.68-1.19,1.95-1.92,3.32-1.92Z"/>
  <g>
    <path class="cls-2" d="M138.47,123.66l.09.56h-.04c-.05-.07-.1-.13-.15-.2.04-.12.07-.24.1-.36Z"/>
    <path class="cls-2" d="M215.95,74.37c-.79-.32-1.64-.5-2.54-.54,0,0,0-.02,0-.03,1,.05,1.85.29,2.53.57Z"/>
    <path class="cls-2" d="M180.88,54.15c-.35.3-.71.6-1.04.92.3-.65.75-1.22,1.3-1.7-.13.24-.21.51-.26.78Z"/>
    <path class="cls-4" d="M182.66,94.69c-.11,1.91-.19,3.92-.22,5.91l2.94,1.71c2.08,1.21,4.58,1.48,6.86.74l13.46-4.36-.96-11.34c9.31,1.89,11.5,6.02,12.01,7.76l1.53-.49c.5-.16,1.04.11,1.2.61.16.5-.11,1.04-.61,1.2l-26.03,8.43c-1.04.34-2.12.5-3.19.5-1.81,0-3.62-.48-5.21-1.4l-.6-.35-1.39-.81-8.85-5.14c-.46-.26-.61-.85-.35-1.3.26-.45.83-.6,1.28-.35,1.69-3.62,5.01-5.89,8.47-7.29-.16,1.88-.36,5.99-.36,5.99.01,0,.02,0,.03,0Z"/>
    <path class="cls-4" d="M180.88,54.15c.06-.27.14-.53.26-.78.17-.14.33-.29.52-.42h0c.62-.41,1.31-.67,2.02-.78-.99.58-1.93,1.24-2.8,1.98Z"/>
    <path class="cls-3" d="M95.34,127.35h0s2.61-5.64,2.61-5.64h0s7.06-15.28,7.06-15.28l.07.03,32.48,12.45c-.45,1.65-.96,3.47-1.53,5.35-2.96.19-5.21,3.11-4.85,6.44l.61,5.71c-.67,1.58-1.36,3.07-2.06,4.39-.28.53-.08,1.18.44,1.47.16.09.34.13.51.13.39,0,.76-.21.96-.57.2-.38.4-.77.6-1.18l2.74,25.85h-17.08c-14.11,0-25.55-11.92-25.55-26.61,0-4.53,1.09-8.79,3.01-12.52Z"/>
    <path class="cls-3" d="M138.51,124.22h-.2c.02-.07.04-.13.06-.2.05.07.1.13.15.2Z"/>
    <polygon class="cls-6" points="97.93 121.71 97.94 121.7 97.93 121.71 97.93 121.71"/>
    <path class="cls-6" d="M139.55,110.94c-.02.08-.76,3.39-2,7.96l-32.48-12.45,15.55-33.25c-3.85-3.74-3.71-10.42-2.9-15.99.08.11.15.2.18.22,1.15,1.15,2.29,1.54,3.28,1.54.55,0,1.05-.12,1.48-.3.12.33.25.67.41.99.94,1.85,2.46,3,4.21,3.21-1.57,3.32-1.58,7.46-.55,10.41.12.34.44.56.78.56.09,0,.18-.01.27-.05.43-.15.66-.62.51-1.05-1.28-3.7-.56-8.46,1.67-11.06.11-.13.23-.26.35-.39.72-.77,2.06-2.19.75-3.82-.46-.57-1.19-1.03-2.17-1.38-.43-.15-.9.07-1.05.5-.15.43.07.9.5,1.05.86.31,1.26.63,1.43.86.32.4.27.65-.67,1.65-.14.15-.28.3-.4.44-.22.25-.39.54-.58.81-.12-.08-.26-.14-.41-.15-1.28-.06-2.43-.92-3.16-2.35-.89-1.75-.9-3.88-.04-5.19,1.65-2.5,5.42-3.26,8.14-3.14,3.73.15,7.14,1.89,9.13,4.64.27.37.79.45,1.15.19.37-.27.45-.78.19-1.15-1.17-1.62-2.78-2.93-4.63-3.85.36-.65,1.3-1.52,2.02-2.03.37-.26.46-.78.2-1.15s-.78-.46-1.15-.2c-.38.26-1.93,1.42-2.58,2.74-1.35-.48-2.78-.78-4.27-.84-.19,0-.38,0-.58,0,.79-3.75,3.17-5.83,3.2-5.86.17-.15.27-.35.29-.56,2.1.18,3.87.69,5.19,1.23-.15-1.28-.38-2.56-.67-3.83h3.33s4.68,0,4.68,0c.82,3.94,1.12,7.97.37,11.97,0,0,0,0,0,0-.18,10.28-2,18.87-3.04,22.97-.05,10.58-2.37,24.4-4.6,35.26-.01,0-.02-.01-.03-.02-.58-.13-1.16.24-1.29.82Z"/>
    <path class="cls-3" d="M179,191.92c1.41,0,2.66-.64,3.59-1.64.16.05.31.11.47.14,1.83.37,3.43.03,4.57-.4,1.37-.52,2.86-.29,4.11.52l20.13,13.06c-.48,4.91,4.04,7.23,6.49,8.49l33.38,17.09c.12.06.25.09.38.09.3,0,.59-.16.74-.45.21-.41.05-.9-.36-1.11l-33.38-17.09c-3.1-1.59-6.08-3.44-5.59-7.08.04-.32-.11-.62-.36-.79,4.29-9.03,4.43-22.62,4.36-26.85,5.41-5.4,16.57.99,16.68,1.06l30.34,14.49c.16.18.38.29.61.29l6.95,3.32c.12.05.24.08.36.08.31,0,.61-.17.75-.47.2-.41.02-.91-.39-1.1l-5.84-2.79c3.34-1.61,7.5-.91,7.55-.9.45.08.88-.22.96-.67.08-.45-.22-.88-.67-.96-.24-.04-5.66-.96-9.65,1.66l-16.76-8c0-.11-.02-.22-.07-.32-6.1-13.88-6.96-30.19-6.9-32.57.06-.14.09-.31.06-.48-.06-.31-.32-.65-.63-.74-.31-.08-.64.02-.85.26-.75.87.35,18.51,6.22,32.81l-11.26-5.38c-.43-.26-11.7-6.69-18.11-1.2l-24.23-11.69s-2.77-2.46-6.56-4.86c-.02-.05-.03-.1-.05-.14-1.28-2.36-3.22-4.29-5.44-5.77l-2.39-22.5c-.31-2.92-2.52-5.11-5.16-5.11h-34.5s-.09-.56-.09-.56c1.27-4.35,2.23-8.17,2.76-10.36,6.48-1.81,16.16-2.88,26.66-3.47l-1.67-9.35h.04c-.14-.58-.23-1.17-.23-1.78,0-5.22,5.49-9.83,13.85-12.55,1.03.64,2.11,1.21,3.21,1.71-.03.14-.06.44-.1.84-3.46,1.41-6.78,3.67-8.47,7.29-.45-.24-1.02-.09-1.28.35-.26.45-.11,1.04.35,1.3l8.85,5.14h0c.45.31.92.57,1.39.81l.6.35c1.6.93,3.4,1.4,5.21,1.4,1.07,0,2.15-.17,3.19-.5l26.03-8.43c.5-.16.78-.7.61-1.2-.16-.5-.7-.77-1.2-.61l-1.53.49c-.51-1.75-2.7-5.88-12.01-7.76l-.05-.59c.86-.27,1.62-.61,2.29-.97,1.38,1.9,3.6,3.16,6.13,3.16,1.86,0,3.53-.69,4.85-1.8,5.47,2.23,9.32,5.34,10.64,8.88v-.16s.15.58.15.58h.03s.12.53.12.53c.02.1.05.2.07.31l1.53,6.67,1.03,4.4c4.54.73,9.07,1.58,13.56,2.54,7.58,1.62,14.5,3.53,20.75,8.32,4.71,3.61,7.03,9.71,8.99,15.09,7.04,19.31,11.72,39.37,19.68,58.36,2.55,6.09,3.54,13.3,2.04,19.78-3.17,13.73-18.49,19.61-31.36,17.46v.68h-93.24s-4.61-6.57-9.19-38.66h16.27Z"/>
    <path class="cls-4" d="M138.36,124.01c-.02.07-.04.13-.06.2h-1.98c-.1,0-.2.03-.3.04.57-1.89,1.08-3.7,1.53-5.35,1.24-4.57,1.99-7.88,2-7.96.13-.58.71-.95,1.29-.82.01,0,.02.01.03.02.56.15.91.71.79,1.28-.03.14-.19.82-.44,1.9-.52,2.18-1.48,6.01-2.76,10.36-.03.12-.07.24-.1.36Z"/>
    <path class="cls-4" d="M132.22,140.64c-.2.4-.4.8-.6,1.18-.2.36-.57.57-.96.57-.17,0-.35-.04-.51-.13-.53-.28-.73-.94-.44-1.47.71-1.32,1.4-2.81,2.06-4.39l.45,4.24Z"/>
    <path class="cls-8" d="M132.22,140.64l-.45-4.24-.61-5.71c-.35-3.33,1.9-6.24,4.85-6.44.1,0,.2-.04.3-.04h1.98s.2,0,.2,0h.04s34.5,0,34.5,0c2.63,0,4.85,2.2,5.16,5.11l2.39,22.5c-1.29-.86-2.68-1.57-4.09-2.13-3.63-1.37-7.39-1.69-11.19-1.46-2.13.07-3.8,1.85-3.74,3.98.03,1.05.49,2,1.19,2.67-.75.26-2.01.69-2.01.69-2.13.73-3.26,3.05-2.53,5.17.2.59.53,1.08.94,1.5-.12.19-.17.42-.09.65.05.15.15.26.26.35-1.43.96-2.18,2.74-1.73,4.5.54,2.12,2.61,3.46,4.73,3.12.19-.03,2.21-.36,2.46-.4,2.04-.3,4.51-.13,6.62.55l-.17.93c-2.18-.18-4.38.01-6.45.58,0,0-2.48.75-2.48.75-2.12.64-3.33,2.88-2.68,5.01.6,2,2.62,3.18,4.63,2.78,1.18-.25,2.75-.59,3.94-.6,2.25-.18,4.89.78,6.23,2.3.11.17.18.31.18.31,0,0,.17.24.48.63.29.49.63.89,1,1.22,1.6,1.88,4.22,4.61,6.52,5.35-.93,1-2.18,1.64-3.59,1.64h-16.27s-20.46,0-20.46,0c-2.63,0-4.85-2.2-5.16-5.11l-2.16-20.33-2.74-25.85Z"/>
    <path class="cls-6" d="M186.03,157.6s.03.1.05.14c3.79,2.4,6.56,4.86,6.56,4.86l24.23,11.69c-.19.16-.39.3-.57.49-.32.33-.32.85.01,1.17.33.32.85.31,1.17-.01.02-.02.04-.03.05-.04.07,4.22-.07,17.82-4.36,26.85-.1-.07-.22-.12-.35-.14-.45-.07-.87.26-.93.71-.01.1-.01.19-.02.29l-20.13-13.06c-1.25-.81-2.74-1.04-4.11-.52-1.14.43-2.74.77-4.57.4-.15-.03-.31-.09-.47-.14-2.3-.74-4.92-3.47-6.52-5.35-.36-.33-.7-.73-1-1.22-.3-.39-.48-.63-.48-.63,0,0-.07-.13-.18-.31-1.35-1.52-3.98-2.48-6.23-2.3-1.19.01-2.76.35-3.94.6-2.01.4-4.03-.78-4.63-2.78-.64-2.12.56-4.37,2.68-5.01,0,0,2.48-.75,2.48-.75,2.07-.57,4.27-.76,6.45-.58l.17-.93c-2.11-.67-4.58-.85-6.62-.55-.25.04-2.27.37-2.46.4-2.12.34-4.19-.99-4.73-3.12-.45-1.76.31-3.54,1.73-4.5.2.15.46.22.71.14,9.56-3.17,17.47.37,17.54.4.1.05.21.07.32.07.29,0,.57-.17.7-.45.18-.39,0-.85-.38-1.02-.34-.16-8.52-3.83-18.68-.47-.17.06-.31.18-.4.32-.41-.42-.74-.92-.94-1.5-.73-2.13.4-4.44,2.53-5.17,0,0,1.26-.43,2.01-.69-.71-.67-1.16-1.62-1.19-2.67-.07-2.13,1.61-3.91,3.74-3.98,3.8-.23,7.56.1,11.19,1.46,1.42.55,2.8,1.26,4.09,2.13,2.22,1.48,4.15,3.41,5.44,5.77Z"/>
    <path class="cls-6" d="M213.09,88.95c1.86,0,3.53-.69,4.85-1.8,1.65-1.39,2.72-3.45,2.72-5.77,0-3.1-1.87-5.76-4.54-6.93-.06-.03-.11-.05-.17-.07-.79-.32-1.64-.5-2.54-.54,0,0,0-.02,0-.03-.78-.04-1.64.04-2.57.33,0,0-2.64.71-4.24,3.32,0,0-.49.32-.9-.44-.41-.76,1.23-3.15,1.23-3.15l4.4-8.48c-3.08-2.16-3.92-9.12-3.92-9.12l-6.96-5.88c-2.01-.65-4.15-1.02-6.38-1.02-2.53,0-4.94.47-7.17,1.3,4.16,1.42,4.7,5.76,4.72,5.95.04.37-.18.7-.51.84.13.19.18.42.11.66-.02.06-1.7,5.21-7.33,5.21-.44,0-.9-.03-1.38-.1-.42-.06-.72-.45-.66-.87.01-.09.05-.17.08-.24-1.12-.38-2.13-1.07-2.82-2.11-.62-.94-.92-2.02-.88-3.14-1.18,1.46-2.14,3.08-2.85,4.84-1.45,2.29-3.4,7.21-2.3,15.22.56,4.11,3.35,7.09,6.78,9.24,1.03.64,2.11,1.21,3.21,1.71,0,0,0,0,0,0,0,0,6.19,2.76,12.46,1.08,0,0-4.12,5.24-12.88,5.74-.11,1.91-.19,3.92-.22,5.91l2.94,1.71c2.08,1.21,4.58,1.48,6.86.74l13.46-4.36-.96-11.34-.05-.59c.86-.27,1.62-.61,2.29-.97,1.38,1.9,3.6,3.16,6.13,3.16ZM190.97,68.85c-.68.54-1.93,1.17-3.36,1.17-1,0-2.08-.31-3.1-1.19-.32-.28-.36-.77-.08-1.09.28-.32.77-.36,1.09-.08,2.1,1.82,4.39.06,4.49-.02.33-.26.82-.21,1.08.13.26.33.21.82-.12,1.08ZM194.84,59.3c.53-.35,1.1-.57,1.7-.71-.24-.01-.44-.05-.7-.05-.47.08-.87-.38-.87-.85,0-.48.38-.87.85-.87,6.39-.06,8.37,4.33,8.45,4.51.19.44-.02.94-.45,1.13-.1.05-.21.06-.32.07.36,1,.49,2.06.31,3.11-.26,1.54-1.11,2.85-2.38,3.68-.91.6-1.94.89-2.98.89-1.92,0-3.86-.99-5.04-2.78-1.82-2.76-1.18-6.4,1.42-8.11ZM216.13,78.68c-.29.27-.75.26-1.02-.03,0,0-.89-.89-2.07-.82-.94.07-1.86.72-2.74,1.96-.14.2-.36.3-.59.3-.15,0-.29-.04-.42-.13-.32-.23-.4-.68-.17-1.01,1.15-1.6,2.43-2.47,3.82-2.56,1.88-.15,3.16,1.21,3.22,1.27.28.29.26.75-.03,1.02Z"/>
    <path class="cls-6" d="M182.43,102.81h0s1.39.8,1.39.8c-.47-.24-.94-.5-1.39-.8Z"/>
    <path class="cls-6" d="M130.43,49.02c-1.75.19-3.54.7-5.04,1.64.48-4.04,1.73-5.67,1.74-5.69.27-.34.22-.81-.08-1.1,2.36-.95,4.58-1.36,6.56-1.42-.94,1.01-2.6,3.24-3.18,6.57Z"/>
    <path class="cls-6" d="M179.84,55.07c-.13.28-.23.57-.3.87-.29,1.2-.09,2.41.57,3.4,1.36,2.06,4.26,2.55,6.48,1.09,1.08-.71,1.83-1.77,2.12-2.98.29-1.2.09-2.41-.57-3.4-.65-.99-1.68-1.65-2.9-1.86-.27-.05-.54-.07-.82-.07-.25,0-.5.02-.75.06-.99.58-1.93,1.24-2.8,1.98-.35.3-.71.6-1.04.92ZM185.25,58.74c-.52,0-.94-.42-.94-.94s.42-.94.94-.94.94.42.94.94-.42.94-.94.94Z"/>
    <path class="cls-6" d="M189.99,56.81c.02.14.08.27.17.38-.09.04-.17.11-.24.18.03-.19.06-.37.08-.56Z"/>
    <path class="cls-6" d="M194.4,66.76c1.46,2.22,4.32,2.91,6.38,1.56.99-.65,1.65-1.68,1.86-2.9.21-1.23-.06-2.5-.78-3.58-.71-1.08-1.77-1.83-2.98-2.13-.36-.08-.71-.13-1.07-.13-.83,0-1.64.24-2.33.7-2.06,1.36-2.55,4.26-1.09,6.48ZM196.48,63.96c-.52,0-.94-.42-.94-.94s.42-.94.94-.94.94.42.94.94-.42.94-.94.94Z"/>
    <path class="cls-5" d="M140.13,39.92h-9.5c-1.6,0-2.57-1.77-1.71-3.12l12.83-20.01c.8-1.24,2.61-1.24,3.41,0l12.83,20.01c.87,1.35-.1,3.12-1.71,3.12h-8.16s-4.68,0-4.68,0h-3.33Z"/>
    <path class="cls-6" d="M123.61,52.21c-.17.2-.35.38-.49.6-.76,1.14-1.04,2.67-.85,4.21-.58.34-1.75.7-3.18-.74,0,0-1-1.2-1.18-4.33-.02-.39-.33-.69-.7-.75.43-3.15,2.48-5.9,6.19-7.24.9-.27,1.7-.18,2.36.11-.39.56-1.86,2.99-2.14,8.14Z"/>
    <path class="cls-4" d="M196.48,63.96c-.52,0-.94-.42-.94-.94s.42-.94.94-.94.94.42.94.94-.42.94-.94.94Z"/>
    <path class="cls-4" d="M184.31,57.81c0-.52.42-.94.94-.94s.94.42.94.94-.42.94-.94.94-.94-.42-.94-.94Z"/>
    <path class="cls-4" d="M213.42,73.8c-.78-.04-1.64.04-2.57.33,0,0-2.64.71-4.24,3.32,0,0-.49.32-.9-.44-.41-.76,1.23-3.15,1.23-3.15l4.4-8.48c-3.08-2.16-3.92-9.12-3.92-9.12l-6.96-5.88c-2.01-.65-4.15-1.02-6.38-1.02-2.53,0-4.94.47-7.17,1.3,4.16,1.42,4.7,5.76,4.72,5.95.04.37-.18.7-.51.84-.07.03-.14.06-.22.07-.03,0-.07,0-.1,0-.26,0-.5-.14-.65-.34-.08-.11-.15-.23-.17-.38,0,0,0,0,0-.02-.02-.15-.47-3.62-3.78-4.64-.44-.13-.68-.6-.55-1.03,0-.01.01-.02.02-.04-.08-.02-.15-.05-.23-.06-.75-.13-1.52-.11-2.26.05-.3-1.26.25-2.61,1.44-3.27.52-.29,1.09-.4,1.65-.36-.56-1.37-.03-2.98,1.3-3.71.82-.45,1.76-.46,2.56-.13-.29-1.38.32-2.85,1.62-3.57,1.6-.88,3.61-.3,4.49,1.3.12.21.29.44.43.66.07-1.16.73-2.25,1.84-2.79,1.64-.8,3.62-.11,4.42,1.53.56,1.16,1.54,2.44,2.65,3.71.06-1.13.75-2.17,1.87-2.61,1.52-.6,3.25.15,3.85,1.67,1.36,3.46,4.22,7.44,5.38,9,2.75,3.05,3.96,6.19,3.96,6.19,0,0,3.96,9.46-3.09,16.59,0,0-.55-.43-1.45-.83-.06-.03-.11-.05-.17-.07-.68-.28-1.53-.52-2.53-.57Z"/>
    <path class="cls-3" d="M193.41,67.41c1.18,1.79,3.12,2.78,5.04,2.78,1.04,0,2.07-.29,2.98-.89,1.27-.83,2.11-2.14,2.38-3.68.18-1.05.06-2.11-.31-3.11,0,0-.01,0-.02,0-.33,0-.65-.19-.79-.52-.06-.14-1.5-3.17-6.15-3.42-.6.15-1.18.37-1.7.71-2.6,1.71-3.24,5.35-1.42,8.11ZM195.49,60.28c.7-.46,1.5-.7,2.33-.7.35,0,.71.04,1.07.13,1.21.29,2.27,1.05,2.98,2.13.71,1.08.99,2.35.78,3.58-.21,1.22-.87,2.24-1.86,2.9-2.06,1.36-4.92.66-6.38-1.56s-.97-5.12,1.09-6.48Z"/>
    <path class="cls-3" d="M183.19,51.07c-.76.16-1.5.46-2.17.91-1.33.88-2.26,2.19-2.62,3.7-.09.4-.14.79-.15,1.19-.03,1.12.27,2.2.88,3.14.69,1.04,1.7,1.73,2.82,2.11.14-.28.45-.46.79-.42,5.43.75,6.96-3.85,7.02-4.05.03-.1.09-.2.16-.27.03-.19.06-.37.08-.56,0,0,0,0,0-.02-.02-.15-.47-3.62-3.78-4.64-.44-.13-.68-.6-.55-1.03,0-.01.01-.02.02-.04-.08-.02-.15-.05-.23-.06-.75-.13-1.52-.11-2.26.05ZM181.15,53.37c.17-.14.33-.29.52-.42h0c.62-.41,1.31-.67,2.02-.78.25-.04.5-.06.75-.06.27,0,.55.02.82.07,1.22.21,2.24.87,2.9,1.86.65.99.86,2.2.57,3.4-.29,1.21-1.05,2.27-2.12,2.98-2.22,1.46-5.12.97-6.48-1.09-.65-.99-.85-2.2-.57-3.4.07-.3.17-.59.3-.87.3-.65.75-1.22,1.3-1.7Z"/>
    <path class="cls-9" d="M182.73,61.69c5.43.75,6.96-3.85,7.02-4.05.03-.1.09-.2.16-.27.07-.08.15-.14.24-.18.15.2.38.34.65.34.03,0,.06,0,.1,0,.08,0,.15-.04.22-.07.13.19.18.42.11.66-.02.06-1.7,5.21-7.33,5.21-.44,0-.9-.03-1.38-.1-.42-.06-.72-.45-.66-.87.01-.09.05-.17.08-.24.14-.28.45-.46.79-.42Z"/>
    <path class="cls-9" d="M159.56,161.94c10.16-3.37,18.33.31,18.68.47.39.18.56.64.38,1.02-.13.28-.41.45-.7.45-.11,0-.22-.02-.32-.07-.08-.04-7.98-3.57-17.54-.4-.26.09-.51.02-.71-.14-.12-.09-.22-.2-.26-.35-.08-.23-.03-.46.09-.65.09-.14.22-.26.4-.32Z"/>
    <path class="cls-9" d="M187.62,70.02c-1,0-2.08-.31-3.1-1.19-.32-.28-.36-.77-.08-1.09.28-.32.77-.36,1.09-.08,2.1,1.82,4.39.06,4.49-.02.33-.26.82-.21,1.08.13.26.33.21.82-.12,1.08-.68.54-1.93,1.17-3.36,1.17Z"/>
    <path class="cls-9" d="M215.11,78.65s-.89-.89-2.07-.82c-.94.07-1.86.72-2.74,1.96-.14.2-.36.3-.59.3-.15,0-.29-.04-.42-.13-.32-.23-.4-.68-.17-1.01,1.15-1.6,2.43-2.47,3.82-2.56,1.88-.15,3.16,1.21,3.22,1.27.28.29.26.75-.03,1.02-.29.27-.75.26-1.02-.03Z"/>
    <path class="cls-1" d="M195.54,88.95s-4.12,5.24-12.88,5.74c-.01,0-.02,0-.03,0,0,0,.2-4.11.36-5.99.03-.39.07-.69.1-.84,0,0,0,0,0,0,0,0,6.19,2.76,12.46,1.08Z"/>
    <path class="cls-4" d="M202.69,62c-.06-.14-1.5-3.17-6.15-3.42-.24-.01-.44-.05-.7-.05-.47.08-.87-.38-.87-.85,0-.48.38-.87.85-.87,6.39-.06,8.37,4.33,8.45,4.51.19.44-.02.94-.45,1.13-.1.05-.21.06-.32.07,0,0-.01,0-.02,0-.33,0-.65-.19-.79-.52Z"/>
    <path class="cls-4" d="M216.31,175.95c-.33-.32-.33-.84-.01-1.17.18-.18.38-.32.57-.49,6.42-5.5,17.68.94,18.11,1.2l11.26,5.38c-5.87-14.31-6.97-31.95-6.22-32.81.21-.24.54-.34.85-.26.31.08.57.42.63.74.03.17,0,.34-.06.48-.05,2.39.81,18.69,6.9,32.57.05.1.07.21.07.32l16.76,8c3.99-2.63,9.41-1.7,9.65-1.66.45.08.75.51.67.96-.08.45-.51.75-.96.67-.05,0-4.21-.71-7.55.9l5.84,2.79c.41.2.59.69.39,1.1-.14.3-.44.47-.75.47-.12,0-.24-.03-.36-.08l-6.95-3.32c-.23,0-.45-.11-.61-.29l-30.34-14.49c-.11-.07-11.27-6.46-16.68-1.06-.02.02-.04.03-.05.04-.32.33-.84.33-1.17.01Z"/>
    <path class="cls-4" d="M212.83,202.6c.13.02.25.07.35.14.25.17.41.47.36.79-.49,3.64,2.49,5.49,5.59,7.08l33.38,17.09c.41.21.57.71.36,1.11-.15.29-.44.45-.74.45-.13,0-.26-.03-.38-.09l-33.38-17.09c-2.45-1.26-6.97-3.58-6.49-8.49,0-.1,0-.19.02-.29.06-.45.48-.78.93-.71Z"/>
    <path class="cls-9" d="M132.13,48.93c.19,0,.39,0,.58,0,1.48.06,2.92.36,4.27.84.65-1.32,2.2-2.48,2.58-2.74.37-.26.89-.17,1.15.2s.17.89-.2,1.15c-.72.51-1.65,1.37-2.02,2.03,1.85.92,3.45,2.23,4.63,3.85.27.37.18.89-.19,1.15-.37.27-.89.18-1.15-.19-1.99-2.75-5.41-4.49-9.13-4.64-2.72-.12-6.49.64-8.14,3.14-.86,1.31-.85,3.44.04,5.19.73,1.43,1.88,2.29,3.16,2.35.16,0,.29.07.41.15.19-.27.36-.56.58-.81.12-.14.26-.29.4-.44.94-1,.99-1.25.67-1.65-.18-.22-.57-.55-1.43-.86-.43-.15-.66-.62-.5-1.05.15-.43.62-.66,1.05-.5.99.35,1.72.81,2.17,1.38,1.31,1.63-.03,3.05-.75,3.82-.12.13-.24.26-.35.39-2.23,2.6-2.95,7.36-1.67,11.06.15.43-.08.9-.51,1.05-.09.03-.18.05-.27.05-.34,0-.66-.21-.78-.56-1.02-2.95-1.02-7.09.55-10.41-1.75-.21-3.27-1.36-4.21-3.21-.16-.32-.3-.65-.41-.99-.43.18-.93.3-1.48.3-.99,0-2.13-.39-3.28-1.54-.03-.03-.09-.11-.18-.22-.39-.53-1.28-2.06-1.46-5.16-.03-.46.32-.85.78-.87.06,0,.11.02.17.03.37.06.68.36.7.75.18,3.13,1.18,4.33,1.18,4.33,1.43,1.43,2.61,1.08,3.18.74-.19-1.54.1-3.06.85-4.21.15-.22.32-.4.49-.6.28-5.15,1.74-7.58,2.14-8.14.05-.07.09-.12.1-.14.29-.35.8-.4,1.16-.12.02.02.03.04.05.06.3.29.35.77.08,1.1-.01.02-1.26,1.66-1.74,5.69,1.5-.94,3.29-1.45,5.04-1.64.58-3.33,2.24-5.56,3.18-6.57.36-.39.62-.61.65-.64.35-.29.87-.24,1.16.11.15.18.21.39.19.61-.02.21-.12.41-.29.56-.03.02-2.41,2.1-3.2,5.86Z"/>
  </g>
  <path class="cls-11" d="M344.9,166.49c0-.36,14.72-28.95-8.15-43.18,0,0-10.58-4.5-10.58,9.61,0,0,13.87,4.38,10.95-12.65,0,0-5.59-26.51-41.72-22.01"/>
  <circle class="cls-11" cx="285.36" cy="97.74" r="4.28"/>
</svg>